<svg xmlns="http://www.w3.org/2000/svg" xmlns:xlink="http://www.w3.org/1999/xlink" width="300" zoomAndPan="magnify" viewBox="0 0 224.87999 149.999998" height="200" preserveAspectRatio="xMidYMid meet" version="1.0"><defs><g/><clipPath id="203c816dad"><path d="M 82 45.015625 L 110.496094 45.015625 L 110.496094 104.984375 L 82 104.984375 Z M 82 45.015625 " clip-rule="nonzero"/></clipPath><clipPath id="d98da95ab9"><path d="M 67.769531 45.015625 L 88 45.015625 L 88 72 L 67.769531 72 Z M 67.769531 45.015625 " clip-rule="nonzero"/></clipPath></defs><g clip-path="url(#203c816dad)"><path fill="#000000" d="M 83.09375 74.730469 L 82.910156 104.964844 L 95.457031 104.964844 L 95.355469 74.949219 L 110.496094 45.035156 L 97.945312 45.035156 L 83.09375 74.730469 " fill-opacity="1" fill-rule="nonzero"/></g><g clip-path="url(#d98da95ab9)"><path fill="#000000" d="M 81.28125 71.730469 L 67.769531 45.035156 L 80.316406 45.035156 L 87.617188 59.476562 L 81.28125 71.730469 " fill-opacity="1" fill-rule="nonzero"/></g><g fill="#000000" fill-opacity="1"><g transform="translate(21.539286, 85.494397)"><g><path d="M 14.96875 -9.953125 L 19.265625 -9.953125 L 19.265625 -2.328125 C 18.203125 -1.578125 16.921875 -0.960938 15.421875 -0.484375 C 13.921875 -0.015625 12.488281 0.21875 11.125 0.21875 C 8.144531 0.21875 5.65625 -0.734375 3.65625 -2.640625 C 1.664062 -4.554688 0.671875 -6.9375 0.671875 -9.78125 C 0.671875 -12.625 1.695312 -14.992188 3.75 -16.890625 C 5.800781 -18.796875 8.375 -19.75 11.46875 -19.75 C 12.925781 -19.75 14.367188 -19.484375 15.796875 -18.953125 C 17.234375 -18.429688 18.457031 -17.726562 19.46875 -16.84375 L 16.671875 -13.453125 C 15.960938 -14.109375 15.140625 -14.625 14.203125 -15 C 13.273438 -15.382812 12.351562 -15.578125 11.4375 -15.578125 C 9.832031 -15.578125 8.484375 -15.019531 7.390625 -13.90625 C 6.304688 -12.800781 5.765625 -11.425781 5.765625 -9.78125 C 5.765625 -8.125 6.3125 -6.734375 7.40625 -5.609375 C 8.507812 -4.492188 9.875 -3.9375 11.5 -3.9375 C 12.539062 -3.9375 13.695312 -4.253906 14.96875 -4.890625 Z M 14.96875 -9.953125 "/></g></g></g><g fill="#000000" fill-opacity="1"><g transform="translate(42.320587, 85.494397)"><g><path d="M 8.53125 -15.25 C 11.144531 -15.25 13.109375 -14.445312 14.421875 -12.84375 C 15.734375 -11.238281 16.304688 -9.035156 16.140625 -6.234375 L 5.53125 -6.234375 C 5.78125 -5.335938 6.210938 -4.644531 6.828125 -4.15625 C 7.441406 -3.675781 8.195312 -3.4375 9.09375 -3.4375 C 10.46875 -3.4375 11.671875 -3.953125 12.703125 -4.984375 L 15.25 -2.484375 C 13.625 -0.710938 11.429688 0.171875 8.671875 0.171875 C 6.222656 0.171875 4.273438 -0.523438 2.828125 -1.921875 C 1.390625 -3.328125 0.671875 -5.1875 0.671875 -7.5 C 0.671875 -9.820312 1.390625 -11.691406 2.828125 -13.109375 C 4.273438 -14.535156 6.175781 -15.25 8.53125 -15.25 Z M 5.453125 -8.84375 L 11.5 -8.84375 C 11.5 -9.75 11.234375 -10.484375 10.703125 -11.046875 C 10.171875 -11.609375 9.46875 -11.890625 8.59375 -11.890625 C 7.769531 -11.890625 7.078125 -11.613281 6.515625 -11.0625 C 5.953125 -10.507812 5.597656 -9.769531 5.453125 -8.84375 Z M 5.453125 -8.84375 "/></g></g></g><g fill="#000000" fill-opacity="1"><g transform="translate(59.158197, 85.494397)"><g><path d="M 10.71875 -4.171875 L 11.65625 -0.8125 C 10.488281 -0.125 9.148438 0.21875 7.640625 0.21875 C 6.140625 0.21875 4.925781 -0.191406 4 -1.015625 C 3.082031 -1.847656 2.625 -3.03125 2.625 -4.5625 L 2.625 -11.21875 L 0.53125 -11.21875 L 0.53125 -14.375 L 2.625 -14.375 L 2.625 -18.578125 L 7.4375 -18.578125 L 7.4375 -14.40625 L 11.390625 -14.40625 L 11.390625 -11.21875 L 7.4375 -11.21875 L 7.4375 -5.3125 C 7.4375 -4.738281 7.550781 -4.316406 7.78125 -4.046875 C 8.019531 -3.773438 8.375 -3.644531 8.84375 -3.65625 C 9.289062 -3.65625 9.914062 -3.828125 10.71875 -4.171875 Z M 10.71875 -4.171875 "/></g></g></g><g fill="#000000" fill-opacity="1"><g transform="translate(71.317406, 85.494397)"><g/></g></g><g fill="#000000" fill-opacity="1"><g transform="translate(77.806325, 85.494397)"><g/></g></g><g fill="#000000" fill-opacity="1"><g transform="translate(84.295244, 85.494397)"><g/></g></g><g fill="#000000" fill-opacity="1"><g transform="translate(90.784163, 85.494397)"><g/></g></g><g fill="#000000" fill-opacity="1"><g transform="translate(97.273082, 85.494397)"><g/></g></g><g fill="#000000" fill-opacity="1"><g transform="translate(103.761029, 85.494397)"><g><path d="M 14.96875 -9.953125 L 19.265625 -9.953125 L 19.265625 -2.328125 C 18.203125 -1.578125 16.921875 -0.960938 15.421875 -0.484375 C 13.921875 -0.015625 12.488281 0.21875 11.125 0.21875 C 8.144531 0.21875 5.65625 -0.734375 3.65625 -2.640625 C 1.664062 -4.554688 0.671875 -6.9375 0.671875 -9.78125 C 0.671875 -12.625 1.695312 -14.992188 3.75 -16.890625 C 5.800781 -18.796875 8.375 -19.75 11.46875 -19.75 C 12.925781 -19.75 14.367188 -19.484375 15.796875 -18.953125 C 17.234375 -18.429688 18.457031 -17.726562 19.46875 -16.84375 L 16.671875 -13.453125 C 15.960938 -14.109375 15.140625 -14.625 14.203125 -15 C 13.273438 -15.382812 12.351562 -15.578125 11.4375 -15.578125 C 9.832031 -15.578125 8.484375 -15.019531 7.390625 -13.90625 C 6.304688 -12.800781 5.765625 -11.425781 5.765625 -9.78125 C 5.765625 -8.125 6.3125 -6.734375 7.40625 -5.609375 C 8.507812 -4.492188 9.875 -3.9375 11.5 -3.9375 C 12.539062 -3.9375 13.695312 -4.253906 14.96875 -4.890625 Z M 14.96875 -9.953125 "/></g></g></g><g fill="#000000" fill-opacity="1"><g transform="translate(124.54233, 85.494397)"><g><path d="M 6.765625 -15.078125 L 6.765625 -12.53125 C 7.828125 -14.34375 9.457031 -15.265625 11.65625 -15.296875 L 11.65625 -10.9375 C 10.28125 -11.0625 9.15625 -10.832031 8.28125 -10.25 C 7.40625 -9.664062 6.898438 -8.832031 6.765625 -7.75 L 6.765625 0 L 1.9375 0 L 1.9375 -15.078125 Z M 6.765625 -15.078125 "/></g></g></g><g fill="#000000" fill-opacity="1"><g transform="translate(136.485282, 85.494397)"><g><path d="M 8.53125 -15.25 C 11.144531 -15.25 13.109375 -14.445312 14.421875 -12.84375 C 15.734375 -11.238281 16.304688 -9.035156 16.140625 -6.234375 L 5.53125 -6.234375 C 5.78125 -5.335938 6.210938 -4.644531 6.828125 -4.15625 C 7.441406 -3.675781 8.195312 -3.4375 9.09375 -3.4375 C 10.46875 -3.4375 11.671875 -3.953125 12.703125 -4.984375 L 15.25 -2.484375 C 13.625 -0.710938 11.429688 0.171875 8.671875 0.171875 C 6.222656 0.171875 4.273438 -0.523438 2.828125 -1.921875 C 1.390625 -3.328125 0.671875 -5.1875 0.671875 -7.5 C 0.671875 -9.820312 1.390625 -11.691406 2.828125 -13.109375 C 4.273438 -14.535156 6.175781 -15.25 8.53125 -15.25 Z M 5.453125 -8.84375 L 11.5 -8.84375 C 11.5 -9.75 11.234375 -10.484375 10.703125 -11.046875 C 10.171875 -11.609375 9.46875 -11.890625 8.59375 -11.890625 C 7.769531 -11.890625 7.078125 -11.613281 6.515625 -11.0625 C 5.953125 -10.507812 5.597656 -9.769531 5.453125 -8.84375 Z M 5.453125 -8.84375 "/></g></g></g><g fill="#000000" fill-opacity="1"><g transform="translate(153.322891, 85.494397)"><g><path d="M 8.53125 -15.25 C 11.144531 -15.25 13.109375 -14.445312 14.421875 -12.84375 C 15.734375 -11.238281 16.304688 -9.035156 16.140625 -6.234375 L 5.53125 -6.234375 C 5.78125 -5.335938 6.210938 -4.644531 6.828125 -4.15625 C 7.441406 -3.675781 8.195312 -3.4375 9.09375 -3.4375 C 10.46875 -3.4375 11.671875 -3.953125 12.703125 -4.984375 L 15.25 -2.484375 C 13.625 -0.710938 11.429688 0.171875 8.671875 0.171875 C 6.222656 0.171875 4.273438 -0.523438 2.828125 -1.921875 C 1.390625 -3.328125 0.671875 -5.1875 0.671875 -7.5 C 0.671875 -9.820312 1.390625 -11.691406 2.828125 -13.109375 C 4.273438 -14.535156 6.175781 -15.25 8.53125 -15.25 Z M 5.453125 -8.84375 L 11.5 -8.84375 C 11.5 -9.75 11.234375 -10.484375 10.703125 -11.046875 C 10.171875 -11.609375 9.46875 -11.890625 8.59375 -11.890625 C 7.769531 -11.890625 7.078125 -11.613281 6.515625 -11.0625 C 5.953125 -10.507812 5.597656 -9.769531 5.453125 -8.84375 Z M 5.453125 -8.84375 "/></g></g></g><g fill="#000000" fill-opacity="1"><g transform="translate(170.160501, 85.494397)"><g><path d="M 11.796875 -15.296875 C 13.460938 -15.296875 14.796875 -14.769531 15.796875 -13.71875 C 16.804688 -12.664062 17.3125 -11.265625 17.3125 -9.515625 L 17.3125 0 L 12.5 0 L 12.5 -8.171875 C 12.5 -9.046875 12.257812 -9.738281 11.78125 -10.25 C 11.3125 -10.757812 10.664062 -11.015625 9.84375 -11.015625 C 8.988281 -11.015625 8.285156 -10.734375 7.734375 -10.171875 C 7.179688 -9.617188 6.859375 -8.882812 6.765625 -7.96875 L 6.765625 0 L 1.9375 0 L 1.9375 -15.078125 L 6.765625 -15.078125 L 6.765625 -12.609375 C 7.828125 -14.367188 9.503906 -15.265625 11.796875 -15.296875 Z M 11.796875 -15.296875 "/></g></g></g><g fill="#000000" fill-opacity="1"><g transform="translate(188.98394, 85.494397)"><g><path d="M 7.328125 -15.296875 C 9.546875 -15.296875 11.613281 -14.726562 13.53125 -13.59375 L 11.890625 -10.453125 C 10.023438 -11.460938 8.4375 -11.96875 7.125 -11.96875 C 6.144531 -11.96875 5.65625 -11.625 5.65625 -10.9375 C 5.65625 -10.5625 5.921875 -10.25 6.453125 -10 C 6.992188 -9.75 7.65625 -9.519531 8.4375 -9.3125 C 9.226562 -9.101562 10.007812 -8.84375 10.78125 -8.53125 C 11.550781 -8.226562 12.207031 -7.738281 12.75 -7.0625 C 13.289062 -6.394531 13.5625 -5.578125 13.5625 -4.609375 C 13.5625 -3.097656 12.972656 -1.914062 11.796875 -1.0625 C 10.628906 -0.21875 9.101562 0.203125 7.21875 0.203125 C 4.550781 0.203125 2.296875 -0.507812 0.453125 -1.9375 L 1.984375 -5 C 3.753906 -3.75 5.535156 -3.125 7.328125 -3.125 C 8.429688 -3.125 8.984375 -3.472656 8.984375 -4.171875 C 8.984375 -4.554688 8.71875 -4.878906 8.1875 -5.140625 C 7.65625 -5.398438 7.003906 -5.632812 6.234375 -5.84375 C 5.472656 -6.050781 4.707031 -6.304688 3.9375 -6.609375 C 3.175781 -6.921875 2.53125 -7.398438 2 -8.046875 C 1.46875 -8.703125 1.203125 -9.523438 1.203125 -10.515625 C 1.203125 -12.023438 1.769531 -13.195312 2.90625 -14.03125 C 4.039062 -14.875 5.515625 -15.296875 7.328125 -15.296875 Z M 7.328125 -15.296875 "/></g></g></g></svg>